<svg xmlns="http://www.w3.org/2000/svg" width="1600" height="900" viewBox="0 0 1600 900" role="img" aria-labelledby="title desc">
  <title id="title">Новый масштаб начинается с ясного выбора — premium abstract</title><desc id="desc">PIP-original luminous perspective environment</desc>
  <defs>
    <linearGradient id="base" x1="0" y1="0" x2="1" y2="1"><stop stop-color="#071421"/><stop offset=".5" stop-color="#102B3C"/><stop offset="1" stop-color="#070B15"/></linearGradient>
    <radialGradient id="light" cx=".72" cy=".48" r=".5"><stop stop-color="#7CE6E1" stop-opacity=".9"/><stop offset=".28" stop-color="#2A9FB2" stop-opacity=".36"/><stop offset="1" stop-color="#102B3C" stop-opacity="0"/></radialGradient>
    <linearGradient id="beam" x1="0" y1="1" x2="1" y2="0"><stop stop-color="#F5A75C" stop-opacity="0"/><stop offset=".6" stop-color="#FFD99B" stop-opacity=".66"/><stop offset="1" stop-color="#FFFFFF" stop-opacity=".06"/></linearGradient>
    <filter id="blur"><feGaussianBlur stdDeviation="34"/></filter>
    <filter id="grain"><feTurbulence baseFrequency=".62" numOctaves="4" seed="24"/><feColorMatrix values="1 0 0 0 0 0 1 0 0 0 0 0 1 0 0 0 0 0 .08 0"/></filter>
  </defs>
  <rect width="1600" height="900" fill="url(#base)"/>
  <ellipse cx="1160" cy="425" rx="570" ry="430" fill="url(#light)" filter="url(#blur)"/>
  <path d="M720 900L1118 455L1570 0H1600V900Z" fill="url(#beam)" opacity=".72"/>
  <path d="M910 900L1174 503L1512 172" fill="none" stroke="#B9FAEE" stroke-opacity=".38" stroke-width="2"/>
  <path d="M1035 900L1225 560L1490 318" fill="none" stroke="#FFDCA8" stroke-opacity=".38" stroke-width="2"/>
  <path d="M0 790C375 692 608 708 890 650C1170 592 1365 426 1600 305V900H0Z" fill="#050B13" opacity=".72"/>
  <rect width="1600" height="900" filter="url(#grain)" opacity=".65"/>
  <text x="90" y="96" font-family="Arial, sans-serif" font-size="17" font-weight="700" letter-spacing="4.2" fill="#8DCDD0">PIP / NEXT HORIZON</text>
  <text x="90" y="306" font-family="Arial, sans-serif" font-size="76" font-weight="700" fill="#F7F5EF">Новый масштаб</text>
  <text x="90" y="398" font-family="Georgia, serif" font-size="82" font-style="italic" fill="#A7EEE5">начинается</text>
  <text x="90" y="490" font-family="Arial, sans-serif" font-size="76" font-weight="700" fill="#F7F5EF">с ясного выбора</text>
  <text x="95" y="575" font-family="Arial, sans-serif" font-size="22" fill="#AEBBC2">Решения, которые открывают следующий горизонт</text>
  <rect x="92" y="770" width="190" height="42" rx="21" fill="none" stroke="#A7EEE5" stroke-opacity=".7"/>
  <text x="117" y="797" font-family="Arial, sans-serif" font-size="13" font-weight="700" letter-spacing="2.2" fill="#D7F8F1">STRATEGY / 2027</text>
</svg>
