<svg xmlns="http://www.w3.org/2000/svg" viewBox="0 0 1600 900" role="img" aria-labelledby="title description">
  <title id="title">Корпоративный титульный слайд</title><desc id="description">Синтетическое превью storytelling для Титульная композиция</desc>
  <rect width="1600" height="900" fill="#F4F7FB"/><rect width="1600" height="165" fill="#082F49"/>
  <text x="90" y="78" font-family="Inter, Arial, sans-serif" font-size="28" font-weight="700" letter-spacing="3" fill="#B45309">REF-000012 · STORYTELLING</text>
  <text x="90" y="132" font-family="Inter, Arial, sans-serif" font-size="38" font-weight="700" fill="#FFFFFF">Корпоративный титульный слайд</text>
  <path d="M130 670 C400 620, 460 320, 780 430 S1190 650, 1480 270" fill="none" stroke="#B45309" stroke-width="16"/><circle cx="190" cy="640" r="34" fill="#FFFFFF" stroke="#B45309" stroke-width="12"/><rect x="95" y="210" width="250" height="120" rx="24" fill="#FFFFFF" stroke="#D8E2EC" stroke-width="3"/><circle cx="590" cy="370" r="34" fill="#FFFFFF" stroke="#B45309" stroke-width="12"/><rect x="485" y="570" width="250" height="120" rx="24" fill="#FFFFFF" stroke="#D8E2EC" stroke-width="3"/><circle cx="990" cy="500" r="34" fill="#FFFFFF" stroke="#B45309" stroke-width="12"/><rect x="875" y="210" width="250" height="120" rx="24" fill="#FFFFFF" stroke="#D8E2EC" stroke-width="3"/><circle cx="1390" cy="300" r="34" fill="#FFFFFF" stroke="#B45309" stroke-width="12"/><rect x="1265" y="570" width="250" height="120" rx="24" fill="#FFFFFF" stroke="#D8E2EC" stroke-width="3"/>
  <text x="90" y="835" font-family="Inter, Arial, sans-serif" font-size="25" font-weight="600" fill="#52677A">Титульная композиция</text>
  <rect x="1410" y="800" width="100" height="38" rx="19" fill="#B45309"/><text x="1460" y="827" text-anchor="middle" font-family="Inter, Arial, sans-serif" font-size="22" font-weight="800" fill="#FFFFFF">PIP</text>
</svg>
