<svg xmlns="http://www.w3.org/2000/svg" viewBox="0 0 1600 900" role="img" aria-labelledby="title description" data-gold="true" data-source-backed="true" data-preview-mode="original_pip_interpretation" data-layout="gold-23">
  <title id="title">Риски бюджета: что влияет на решение</title><desc id="description">Оригинальная high-fidelity PIP-интерпретация открытого источника</desc>
  <rect width="1600" height="900" fill="#F7F9FC"/>
  <rect x="0" y="0" width="18" height="900" fill="#B45309"/>
  <text x="80" y="54" font-family="Inter, Arial, sans-serif" font-size="16" font-weight="750" fill="#B45309" text-anchor="start">ЗАЩИТА БЮДЖЕТА · GOLD REFERENCE</text>
  <text x="80" y="112" font-family="Inter, Arial, sans-serif" font-size="41" font-weight="800" fill="#3F2D18" text-anchor="start">Риски бюджета: что влияет на решение</text>
  <text x="80" y="150" font-family="Inter, Arial, sans-serif" font-size="17" font-weight="500" fill="#60758A" text-anchor="start">Настоящая risk map показывает severity, владельцев и остаточный риск. Визуальная логика раскрывает рис…</text>
  <text x="80" y="205" font-family="Inter, Arial, sans-serif" font-size="17" font-weight="700" fill="#6B7F93" text-anchor="start">МАТРИЦА РИСКОВ: ВЕРОЯТНОСТЬ × ВЛИЯНИЕ</text><rect x="120" y="250" width="720" height="450" rx="10" fill="#FFFFFF" stroke="#D8E2EC" stroke-width="2"/><rect x="120" y="250" width="144" height="90" fill="#DCFCE7" stroke="#FFFFFF" stroke-width="4"/><rect x="264" y="250" width="144" height="90" fill="#DCFCE7" stroke="#FFFFFF" stroke-width="4"/><rect x="408" y="250" width="144" height="90" fill="#DCFCE7" stroke="#FFFFFF" stroke-width="4"/><rect x="552" y="250" width="144" height="90" fill="#FEF3C7" stroke="#FFFFFF" stroke-width="4"/><rect x="696" y="250" width="144" height="90" fill="#FEF3C7" stroke="#FFFFFF" stroke-width="4"/><rect x="120" y="340" width="144" height="90" fill="#DCFCE7" stroke="#FFFFFF" stroke-width="4"/><rect x="264" y="340" width="144" height="90" fill="#DCFCE7" stroke="#FFFFFF" stroke-width="4"/><rect x="408" y="340" width="144" height="90" fill="#FEF3C7" stroke="#FFFFFF" stroke-width="4"/><rect x="552" y="340" width="144" height="90" fill="#FEF3C7" stroke="#FFFFFF" stroke-width="4"/><rect x="696" y="340" width="144" height="90" fill="#FEF3C7" stroke="#FFFFFF" stroke-width="4"/><rect x="120" y="430" width="144" height="90" fill="#DCFCE7" stroke="#FFFFFF" stroke-width="4"/><rect x="264" y="430" width="144" height="90" fill="#FEF3C7" stroke="#FFFFFF" stroke-width="4"/><rect x="408" y="430" width="144" height="90" fill="#FEF3C7" stroke="#FFFFFF" stroke-width="4"/><rect x="552" y="430" width="144" height="90" fill="#FEF3C7" stroke="#FFFFFF" stroke-width="4"/><rect x="696" y="430" width="144" height="90" fill="#FEE2E2" stroke="#FFFFFF" stroke-width="4"/><rect x="120" y="520" width="144" height="90" fill="#FEF3C7" stroke="#FFFFFF" stroke-width="4"/><rect x="264" y="520" width="144" height="90" fill="#FEF3C7" stroke="#FFFFFF" stroke-width="4"/><rect x="408" y="520" width="144" height="90" fill="#FEF3C7" stroke="#FFFFFF" stroke-width="4"/><rect x="552" y="520" width="144" height="90" fill="#FEE2E2" stroke="#FFFFFF" stroke-width="4"/><rect x="696" y="520" width="144" height="90" fill="#FEE2E2" stroke="#FFFFFF" stroke-width="4"/><rect x="120" y="610" width="144" height="90" fill="#FEF3C7" stroke="#FFFFFF" stroke-width="4"/><rect x="264" y="610" width="144" height="90" fill="#FEF3C7" stroke="#FFFFFF" stroke-width="4"/><rect x="408" y="610" width="144" height="90" fill="#FEE2E2" stroke="#FFFFFF" stroke-width="4"/><rect x="552" y="610" width="144" height="90" fill="#FEE2E2" stroke="#FFFFFF" stroke-width="4"/><rect x="696" y="610" width="144" height="90" fill="#FEE2E2" stroke="#FFFFFF" stroke-width="4"/><text x="55" y="480" font-family="Inter, Arial, sans-serif" font-size="16" font-weight="700" fill="#6B7F93" text-anchor="middle">ВЛИЯНИЕ</text><text x="480" y="735" font-family="Inter, Arial, sans-serif" font-size="16" font-weight="700" fill="#6B7F93" text-anchor="middle">ВЕРОЯТНОСТЬ</text><circle cx="695" cy="295" r="23" fill="#0F766E"/><text x="695" y="302" font-family="Inter, Arial, sans-serif" font-size="14" font-weight="800" fill="#FFFFFF" text-anchor="middle">R1</text><circle cx="550" cy="385" r="23" fill="#DC2626"/><text x="550" y="392" font-family="Inter, Arial, sans-serif" font-size="14" font-weight="800" fill="#FFFFFF" text-anchor="middle">R2</text><circle cx="405" cy="475" r="23" fill="#B45309"/><text x="405" y="482" font-family="Inter, Arial, sans-serif" font-size="14" font-weight="800" fill="#FFFFFF" text-anchor="middle">R3</text><circle cx="695" cy="565" r="23" fill="#DC2626"/><text x="695" y="572" font-family="Inter, Arial, sans-serif" font-size="14" font-weight="800" fill="#FFFFFF" text-anchor="middle">R4</text><circle cx="260" cy="655" r="23" fill="#047857"/><text x="260" y="662" font-family="Inter, Arial, sans-serif" font-size="14" font-weight="800" fill="#FFFFFF" text-anchor="middle">R5</text>
      <rect x="900" y="250" width="620" height="450" rx="20" fill="#3F2D18" stroke="#3F2D18" stroke-width="0"/><text x="932" y="292" font-family="Inter, Arial, sans-serif" font-size="16" font-weight="700" fill="#FDE68A" text-anchor="start">КЛЮЧЕВЫЕ РИСКИ И МЕРЫ</text><rect x="932" y="325" width="48" height="40" rx="20" fill="#0F766E" stroke="#0F766E" stroke-width="0"/><text x="956" y="352" font-family="Inter, Arial, sans-serif" font-size="17" font-weight="700" fill="#FFFFFF" text-anchor="middle">R2</text><text x="997" y="352" font-family="Inter, Arial, sans-serif" font-size="19" font-weight="700" fill="#FFFFFF" text-anchor="start">Рост стоимости лицензий</text><text x="997" y="383" font-family="Inter, Arial, sans-serif" font-size="16" font-weight="550" fill="#CBD5E1" text-anchor="start">Фиксация цены · CFO</text><rect x="932" y="430" width="48" height="40" rx="20" fill="#DC2626" stroke="#DC2626" stroke-width="0"/><text x="956" y="457" font-family="Inter, Arial, sans-serif" font-size="17" font-weight="700" fill="#FFFFFF" text-anchor="middle">R4</text><text x="997" y="457" font-family="Inter, Arial, sans-serif" font-size="19" font-weight="700" fill="#FFFFFF" text-anchor="start">Сдвиг интеграции</text><text x="997" y="488" font-family="Inter, Arial, sans-serif" font-size="16" font-weight="550" fill="#CBD5E1" text-anchor="start">Резерв 4 недели · ИТ</text><rect x="932" y="535" width="48" height="40" rx="20" fill="#0F766E" stroke="#0F766E" stroke-width="0"/><text x="956" y="562" font-family="Inter, Arial, sans-serif" font-size="17" font-weight="700" fill="#FFFFFF" text-anchor="middle">R1</text><text x="997" y="562" font-family="Inter, Arial, sans-serif" font-size="19" font-weight="700" fill="#FFFFFF" text-anchor="start">Нагрузка команды</text><text x="997" y="593" font-family="Inter, Arial, sans-serif" font-size="16" font-weight="550" fill="#CBD5E1" text-anchor="start">Внешний ресурс · PMO</text><rect x="932" y="655" width="300" height="40" rx="20" fill="#B45309" stroke="#B45309" stroke-width="0"/><text x="1082" y="682" font-family="Inter, Arial, sans-serif" font-size="17" font-weight="700" fill="#FFFFFF" text-anchor="middle">ОСТАТОЧНЫЙ РИСК: СРЕДНИЙ</text>
  <text x="80" y="858" font-family="Inter, Arial, sans-serif" font-size="15" font-weight="700" fill="#6B7F93" text-anchor="start">PIP · REF-000035</text><text x="1515" y="858" font-family="Inter, Arial, sans-serif" font-size="15" font-weight="700" fill="#6B7F93" text-anchor="end">23</text>
</svg>
